<svg xmlns="http://www.w3.org/2000/svg" width="24.761" height="23.663" viewBox="0 0 24.761 23.663">
  <path id="Tracé_41" data-name="Tracé 41" d="M298.417,409.572v9.157h-5.308v-8.542c0-2.146-.766-3.611-2.689-3.611a2.9,2.9,0,0,0-2.722,1.943,3.593,3.593,0,0,0-.176,1.293v8.917h-5.31s.072-14.469,0-15.967h5.31v2.264c-.01.017-.025.035-.035.052h.035v-.052a5.271,5.271,0,0,1,4.784-2.639c3.493,0,6.11,2.283,6.11,7.185ZM276.66,395.066a2.766,2.766,0,1,0-.07,5.517h.033a2.767,2.767,0,1,0,.037-5.517Zm-2.689,23.663h5.306V402.762h-5.306Zm0,0" transform="translate(-273.656 -395.066)" fill="#fff"/>
</svg>
