<svg id="Groupe_67" data-name="Groupe 67" xmlns="http://www.w3.org/2000/svg" width="23.463" height="23.463" viewBox="0 0 23.463 23.463">
  <path id="Tracé_14" data-name="Tracé 14" d="M245.988,353.89H235.475A6.482,6.482,0,0,0,229,360.365v10.513a6.482,6.482,0,0,0,6.475,6.475h10.513a6.482,6.482,0,0,0,6.475-6.475V360.365a6.482,6.482,0,0,0-6.475-6.475Zm4.393,16.988a4.4,4.4,0,0,1-4.393,4.393H235.475a4.4,4.4,0,0,1-4.393-4.393V360.365a4.4,4.4,0,0,1,4.393-4.393h10.513a4.4,4.4,0,0,1,4.393,4.393Zm0,0" transform="translate(-229 -353.89)" fill="#fff"/>
  <path id="Tracé_15" data-name="Tracé 15" d="M267.819,386.668a6.046,6.046,0,1,0,6.046,6.045,6.052,6.052,0,0,0-6.046-6.045Zm0,10.009a3.964,3.964,0,1,1,3.964-3.964,3.968,3.968,0,0,1-3.964,3.964Zm0,0" transform="translate(-256.088 -380.982)" fill="#fff"/>
  <path id="Tracé_16" data-name="Tracé 16" d="M325.664,376.492a1.526,1.526,0,1,0,1.079.447,1.531,1.531,0,0,0-1.079-.447Zm0,0" transform="translate(-307.633 -372.571)" fill="#fff"/>
</svg>
