<svg xmlns="http://www.w3.org/2000/svg" width="24.09" height="16.867" viewBox="0 0 24.09 16.867">
  <path id="Tracé_19" data-name="Tracé 19" d="M88.593,244.084a3.018,3.018,0,0,0-2.123-2.123c-1.885-.516-9.426-.516-9.426-.516s-7.54,0-9.426.5a3.08,3.08,0,0,0-2.123,2.143,34.088,34.088,0,0,0,0,11.588,3.019,3.019,0,0,0,2.123,2.123c1.9.516,9.426.516,9.426.516s7.54,0,9.426-.5a3.018,3.018,0,0,0,2.123-2.123,31.8,31.8,0,0,0,.5-5.794A30.186,30.186,0,0,0,88.593,244.084Zm-13.95,9.406v-7.223l6.27,3.612Z" transform="translate(-65 -241.445)" fill="#fff"/>
</svg>
