<svg xmlns="http://www.w3.org/2000/svg" width="19.932" height="19.932" viewBox="0 0 19.932 19.932">
  <path id="Tracé_17" data-name="Tracé 17" d="M17.248,0H2.688A2.686,2.686,0,0,0,0,2.686v14.56a2.686,2.686,0,0,0,2.686,2.686H9.869l.012-7.123H8.031a.437.437,0,0,1-.437-.435l-.009-2.3a.437.437,0,0,1,.437-.438H9.869V7.422a3.624,3.624,0,0,1,3.869-3.976h1.885a.437.437,0,0,1,.437.437V5.818a.437.437,0,0,1-.436.437H14.466c-1.249,0-1.491.593-1.491,1.464V9.64h2.744a.437.437,0,0,1,.434.488l-.272,2.3a.437.437,0,0,1-.434.385h-2.46l-.012,7.123h4.273a2.686,2.686,0,0,0,2.686-2.686V2.686A2.686,2.686,0,0,0,17.248,0Z" transform="translate(-0.002 0)" fill="#fff"/>
</svg>
