<svg xmlns="http://www.w3.org/2000/svg" width="25.923" height="21.063" viewBox="0 0 25.923 21.063">
  <path id="Tracé_18" data-name="Tracé 18" d="M25.923,66.493a11.08,11.08,0,0,1-3.062.839A5.285,5.285,0,0,0,25.2,64.4a10.621,10.621,0,0,1-3.37,1.286,5.314,5.314,0,0,0-9.193,3.634,5.472,5.472,0,0,0,.123,1.212A15.043,15.043,0,0,1,1.8,64.969a5.316,5.316,0,0,0,1.633,7.1,5.248,5.248,0,0,1-2.4-.655v.058A5.339,5.339,0,0,0,5.295,76.7a5.3,5.3,0,0,1-1.393.175A4.7,4.7,0,0,1,2.9,76.782a5.365,5.365,0,0,0,4.966,3.7,10.679,10.679,0,0,1-6.589,2.267A9.956,9.956,0,0,1,0,82.678a14.962,14.962,0,0,0,8.153,2.385A15.022,15.022,0,0,0,23.279,69.94c0-.235-.008-.462-.019-.687A10.6,10.6,0,0,0,25.923,66.493Z" transform="translate(0 -64)" fill="#fff"/>
</svg>
